<svg xmlns="http://www.w3.org/2000/svg" width="101" height="103" viewBox="0 0 101 103">
  <g id="Group_22" data-name="Group 22" transform="translate(-13 -689)">
    <path id="Polygon_2" data-name="Polygon 2" d="M34.59,8.255a5,5,0,0,1,8.82,0L74.07,65.644A5,5,0,0,1,69.66,73H8.34a5,5,0,0,1-4.41-7.356Z" transform="translate(36 689)" fill="#23a4c5"/>
    <path id="Polygon_3" data-name="Polygon 3" d="M26.574,8.424a5,5,0,0,1,8.852,0l22.725,43.25A5,5,0,0,1,53.725,59H8.275a5,5,0,0,1-4.426-7.326Z" transform="translate(13 733)" fill="#64db8b"/>
    <path id="Polygon_4" data-name="Polygon 4" d="M20.964,9.784a5,5,0,0,1,9.072,0L47.707,47.9A5,5,0,0,1,43.171,55H7.829a5,5,0,0,1-4.536-7.1Z" transform="translate(36 735)" fill="#e50000"/>
  </g>
</svg>
